<?xml version="1.0" encoding="UTF-8"?>
<svg id="Layer_2" data-name="Layer 2" xmlns="http://www.w3.org/2000/svg" viewBox="0 0 902.44 195.6">
  <defs>
    <style>
      .cls-1 {
        fill: #fff;
      }

      .cls-2 {
        fill: #a8cc7a;
      }
    </style>
  </defs>
  <g id="Layer_1-2" data-name="Layer 1">
    <g>
      <g>
        <path class="cls-1" d="M0,136.78V0h52.53l21.4,25.79,15.09,18.15h.96V0h44.32v136.78h-48.71l-24.07-29.99-16.43-20.63h-.96v50.62H0Z"/>
        <path class="cls-1" d="M144.23,136.78V0h57.69v136.78h-57.69Z"/>
        <path class="cls-1" d="M230,136.78c-5.61,0-10.22-2.1-13.85-6.3-3.63-4.2-5.44-9.42-5.44-15.67V21.97c0-6.37,1.81-11.62,5.44-15.76,3.63-4.14,8.24-6.21,13.85-6.21h98.19c5.6,0,10.22,2.07,13.85,6.21,3.63,4.14,5.44,9.39,5.44,15.76v37.82h-56.36v-19.1c0-3.56-1.05-6.11-3.15-7.64-2.1-1.53-5-2.29-8.69-2.29s-6.37.73-8.41,2.2c-2.04,1.46-3.06,3.98-3.06,7.55v55.4c0,3.57,1.08,6.11,3.25,7.64,2.16,1.53,5.03,2.29,8.6,2.29s6.37-.73,8.41-2.2c2.04-1.46,3.06-3.98,3.06-7.55v-19.1h56.36v37.83c0,6.24-1.81,11.46-5.44,15.67-3.63,4.2-8.25,6.3-13.85,6.3h-98.19Z"/>
        <path class="cls-1" d="M373.85,136.78c-5.61,0-10.22-2.1-13.85-6.3-3.63-4.2-5.44-9.42-5.44-15.67V21.97c0-6.37,1.81-11.62,5.44-15.76,3.63-4.14,8.24-6.21,13.85-6.21h99.15c5.6,0,10.22,2.07,13.85,6.21,3.63,4.14,5.44,9.39,5.44,15.76v92.84c0,6.24-1.81,11.46-5.44,15.67-3.63,4.2-8.25,6.3-13.85,6.3h-99.15ZM423.52,105.83c3.56,0,6.37-.73,8.41-2.2,2.04-1.46,3.06-3.98,3.06-7.55v-55.21c0-3.56-1.05-6.11-3.15-7.64s-5-2.29-8.69-2.29-6.37.73-8.41,2.2c-2.04,1.47-3.06,3.98-3.06,7.55v55.21c0,3.57,1.08,6.11,3.25,7.64,2.16,1.53,5.03,2.29,8.6,2.29Z"/>
        <path class="cls-1" d="M501.08,136.78V0h57.12v97.43h52.15v39.35h-109.27Z"/>
        <path class="cls-1" d="M613.79,136.78L649.32,0h81.57l35.53,136.78h-60.94l-5.54-21.97h-32.86l-5.73,21.97h-47.57ZM673.96,83.67h19.29l-8.98-37.44h-.96l-9.36,37.44Z"/>
        <path class="cls-1" d="M787.44,136.78c-5.61,0-10.22-2.1-13.85-6.3-3.63-4.2-5.44-9.42-5.44-15.67v-21.21h56.55v5.73c0,3.31.83,5.92,2.48,7.83,1.65,1.91,4.46,2.87,8.41,2.87s6.81-.96,8.21-2.87c1.4-1.91,2.1-4.27,2.1-7.07,0-3.31-.73-5.76-2.2-7.35-1.46-1.59-4.24-2.71-8.31-3.34l-47.57-7.45c-5.86-1.02-10.57-3.53-14.14-7.55-3.57-4.01-5.35-9.39-5.35-16.14V21.97c0-6.37,1.82-11.62,5.45-15.76,3.63-4.14,8.24-6.21,13.85-6.21h95.52c5.6,0,10.22,2.07,13.85,6.21,3.63,4.14,5.45,9.39,5.45,15.76v21.2h-56.36v-5.73c0-3.31-.8-5.92-2.39-7.83-1.59-1.91-4.43-2.87-8.5-2.87s-6.66.86-8.12,2.58c-1.47,1.72-2.2,3.92-2.2,6.59s.7,4.94,2.1,6.4c1.4,1.47,4.2,2.52,8.41,3.15l47.57,7.45c5.99.89,10.73,3.5,14.23,7.83,3.5,4.33,5.25,10.06,5.25,17.19v36.87c0,6.24-1.82,11.46-5.45,15.67-3.63,4.2-8.25,6.3-13.85,6.3h-95.71Z"/>
      </g>
      <g>
        <path class="cls-2" d="M146.49,195.6c-1.7,0-3.1-.44-4.19-1.31-1.09-.87-1.81-2.06-2.16-3.58-.34-1.52-.27-3.23.21-5.13l7.53-28.17c.49-1.82,1.27-3.44,2.37-4.86,1.09-1.42,2.37-2.53,3.83-3.34,1.46-.81,2.98-1.21,4.55-1.21h40.74c1.62,0,2.93.41,3.95,1.21,1.01.81,1.68,1.92,2,3.34.32,1.42.22,3.04-.3,4.86l-7.71,28.84h-43.72c-1.05,0-1.8-.38-2.25-1.15-.45-.77-.53-1.74-.24-2.91l5.59-20.77c.32-1.17.92-2.15,1.79-2.91.87-.77,1.83-1.15,2.88-1.15h33.64l-5.83,21.62h4.61l5.77-21.56c.32-1.05.29-2.01-.09-2.88-.38-.87-1.29-1.31-2.7-1.31h-38.31c-1.38,0-2.5.45-3.37,1.34-.87.89-1.45,1.84-1.73,2.85l-7.53,28.17c-.28,1.13-.21,2.22.21,3.25s1.45,1.55,3.07,1.55h34.79l-1.4,5.22h-36.01ZM170.9,178.96h1.09l3.64-13.42h-1.09c-.49,0-.93.18-1.34.55-.41.37-.69.85-.85,1.46l-2.55,9.35c-.16.61-.14,1.1.06,1.49.2.38.55.58,1.03.58Z"/>
        <path class="cls-2" d="M199.19,193.29l8.74-32.61h17l-1.52,5.65h.61c.45-1.62,1.31-2.96,2.58-4.04,1.28-1.07,2.72-1.61,4.34-1.61h-2.61,12.69c1.62,0,2.8.54,3.55,1.61.75,1.07.9,2.42.46,4.04h.42c.44-1.62,1.33-2.96,2.64-4.04,1.31-1.07,2.78-1.61,4.4-1.61h10.26c1.62,0,2.8.54,3.55,1.61.75,1.07.9,2.42.46,4.04l-7.23,26.96h-17l5.89-22.04c.2-.61.14-1.07-.18-1.4-.32-.32-.85-.49-1.58-.49s-1.35.15-1.85.46c-.51.3-.84.76-1,1.37l-5.95,22.1h-17l5.89-22.04c.2-.61.14-1.07-.18-1.4-.32-.32-.85-.49-1.58-.49s-1.35.15-1.85.46c-.51.3-.84.76-1,1.37l-5.95,22.1h-17Z"/>
        <path class="cls-2" d="M268.53,193.29c-1.62,0-2.79-.54-3.52-1.61-.73-1.07-.89-2.42-.49-4.04l5.71-21.31c.44-1.62,1.33-2.96,2.64-4.04,1.31-1.07,2.78-1.61,4.4-1.61h28.48c1.62,0,2.8.54,3.55,1.61.75,1.07.9,2.42.46,4.04l-5.71,21.31c-.4,1.62-1.27,2.97-2.61,4.04-1.34,1.07-2.81,1.61-4.43,1.61h-28.48ZM284.92,185.15c.89,0,1.64-.18,2.25-.55.61-.36.99-.87,1.15-1.52l3.28-12.14c.2-.69.1-1.21-.3-1.58-.41-.36-1.03-.55-1.88-.55s-1.63.17-2.22.52c-.59.34-.98.86-1.18,1.55l-3.28,12.14c-.16.65-.05,1.16.33,1.55.38.38,1,.58,1.85.58Z"/>
        <path class="cls-2" d="M306.11,193.29l8.74-32.61h17.12l-1.52,5.65h.61c.44-1.62,1.31-2.96,2.58-4.04s2.72-1.61,4.34-1.61h11.05c1.62,0,2.8.54,3.55,1.61.75,1.07.9,2.42.46,4.04l-7.23,26.96h-17.12l5.89-22.04c.2-.69.11-1.21-.27-1.58-.39-.36-.98-.55-1.79-.55-.89,0-1.63.17-2.22.52-.59.34-.96.86-1.12,1.55l-5.95,22.1h-17.12Z"/>
        <path class="cls-2" d="M354.81,193.29c-1.62,0-2.79-.54-3.52-1.61-.73-1.07-.89-2.42-.49-4.04l5.71-21.31c.44-1.62,1.33-2.96,2.64-4.04,1.31-1.07,2.78-1.61,4.4-1.61h28.48c1.62,0,2.8.54,3.55,1.61.75,1.07.9,2.42.46,4.04l-5.71,21.31c-.4,1.62-1.27,2.97-2.61,4.04-1.34,1.07-2.81,1.61-4.43,1.61h-28.48ZM371.2,185.15c.89,0,1.64-.18,2.25-.55.61-.36.99-.87,1.15-1.52l3.28-12.14c.2-.69.1-1.21-.3-1.58-.41-.36-1.03-.55-1.88-.55s-1.63.17-2.22.52c-.59.34-.98.86-1.18,1.55l-3.28,12.14c-.16.65-.05,1.16.33,1.55.38.38,1,.58,1.85.58Z"/>
        <path class="cls-2" d="M397.8,193.29c-1.62,0-2.79-.54-3.52-1.61-.73-1.07-.89-2.42-.49-4.04l8.5-31.76,19.07-6.07-2.91,10.87h6.25l-2.49,9.35h-6.25l-3.4,12.51c-.08.41-.03.74.15,1,.18.26.48.39.88.39h4.86l-2.49,9.35h-18.15Z"/>
        <path class="cls-2" d="M424.09,193.29c-1.62,0-2.79-.54-3.52-1.61-.73-1.07-.89-2.42-.49-4.04l5.71-21.31c.44-1.62,1.33-2.96,2.64-4.04,1.31-1.07,2.78-1.61,4.4-1.61h28.48c1.62,0,2.8.54,3.55,1.61.75,1.07.9,2.42.46,4.04l-5.71,21.31c-.4,1.62-1.27,2.97-2.61,4.04-1.34,1.07-2.81,1.61-4.43,1.61h-28.48ZM440.48,185.15c.89,0,1.64-.18,2.25-.55.61-.36.99-.87,1.15-1.52l3.28-12.14c.2-.69.1-1.21-.3-1.58-.41-.36-1.03-.55-1.88-.55s-1.63.17-2.22.52c-.59.34-.98.86-1.18,1.55l-3.28,12.14c-.16.65-.05,1.16.33,1.55.38.38,1,.58,1.85.58Z"/>
        <path class="cls-2" d="M461.67,193.29l8.74-32.61h17.12l-1.52,5.65h.61c.44-1.62,1.31-2.96,2.58-4.04s2.72-1.61,4.34-1.61h11.05c1.62,0,2.8.54,3.55,1.61.75,1.07.9,2.42.46,4.04l-7.23,26.96h-17.12l5.89-22.04c.2-.69.11-1.21-.27-1.58-.39-.36-.98-.55-1.79-.55-.89,0-1.63.17-2.22.52-.59.34-.96.86-1.12,1.55l-5.95,22.1h-17.12Z"/>
        <path class="cls-2" d="M510.37,193.29c-1.62,0-2.79-.54-3.52-1.61-.73-1.07-.89-2.42-.49-4.04l5.71-21.31c.44-1.62,1.33-2.96,2.64-4.04,1.31-1.07,2.78-1.61,4.4-1.61h28.48c1.62,0,2.8.54,3.55,1.61.75,1.07.9,2.42.46,4.04l-3.58,13.36h-22.53l-1.15,4.43c-.2.77-.11,1.33.27,1.67.38.34,1.02.52,1.91.52s1.58-.17,2.19-.52c.61-.34,1.01-.9,1.21-1.67l.61-2.31h16.94l-1.58,5.83c-.4,1.62-1.27,2.97-2.61,4.04-1.34,1.07-2.81,1.61-4.43,1.61h-28.48ZM527.25,173.13h5.59l.79-3.04c.24-.89.16-1.52-.24-1.88-.41-.36-1.05-.55-1.94-.55s-1.57.18-2.16.55c-.59.36-1,.99-1.24,1.88l-.79,3.04Z"/>
        <path class="cls-2" d="M547.95,193.29l11.66-43.47h16.94l-4.43,16.51h.61c.44-1.62,1.31-2.96,2.61-4.04,1.29-1.07,2.73-1.61,4.31-1.61h10.93c1.62,0,2.8.54,3.55,1.61.75,1.07.9,2.42.46,4.04l-5.71,21.31c-.4,1.62-1.27,2.97-2.61,4.04-1.34,1.07-2.81,1.61-4.43,1.61h-10.93c-1.62,0-2.77-.54-3.46-1.61-.69-1.07-.83-2.42-.42-4.04h-.61l-1.52,5.65h-16.94ZM569.99,184.91c.85,0,1.57-.19,2.16-.58.59-.38.96-.9,1.12-1.55l3.16-11.66c.2-.69.09-1.2-.33-1.55-.42-.34-1.08-.52-1.97-.52s-1.57.18-2.16.55c-.59.36-.96.89-1.12,1.58l-3.16,11.66c-.16.65-.04,1.15.36,1.52.4.36,1.05.55,1.94.55Z"/>
        <path class="cls-2" d="M596.1,193.29c-1.62,0-2.79-.54-3.52-1.61-.73-1.07-.89-2.42-.49-4.04l1.88-7.04c.44-1.7,1.29-3.09,2.55-4.16,1.25-1.07,2.67-1.67,4.25-1.79l14.81-1.15c.97-.08,1.73-.31,2.28-.7.55-.38.96-1.06,1.25-2.03l.06-.18c.28-1.01.24-1.75-.12-2.22-.36-.46-.99-.7-1.88-.7s-1.59.23-2.22.7c-.63.47-1.04,1.1-1.25,1.91l-.61,2.19h-16.94l1.64-6.13c.44-1.62,1.33-2.96,2.64-4.04,1.31-1.07,2.78-1.61,4.4-1.61h28.54c1.62,0,2.8.54,3.55,1.61.75,1.07.9,2.42.46,4.04l-7.23,26.96h-16.94l1.4-5.28h-.61c-.4,1.5-1.21,2.75-2.43,3.76s-2.59,1.52-4.13,1.52h-11.35ZM612.49,185.58c.85,0,1.58-.19,2.19-.58.61-.38.99-.9,1.15-1.55l1.03-3.7-2.61.3c-1.09.12-1.96.41-2.61.85-.65.45-1.09,1.11-1.34,2-.16.57-.18,1.05-.06,1.46.12.41.37.71.76.91.38.2.88.3,1.49.3Z"/>
        <path class="cls-2" d="M633.93,193.29l8.74-32.61h17.12l-1.52,5.65h.61c.44-1.62,1.31-2.96,2.58-4.04s2.72-1.61,4.34-1.61h11.05c1.62,0,2.8.54,3.55,1.61.75,1.07.9,2.42.46,4.04l-7.23,26.96h-17.12l5.89-22.04c.2-.69.11-1.21-.27-1.58-.39-.36-.98-.55-1.79-.55-.89,0-1.63.17-2.22.52-.59.34-.96.86-1.12,1.55l-5.95,22.1h-17.12Z"/>
        <path class="cls-2" d="M682.62,193.29c-1.62,0-2.79-.54-3.52-1.61-.73-1.07-.89-2.42-.49-4.04l5.71-21.31c.44-1.62,1.33-2.96,2.64-4.04,1.31-1.07,2.78-1.61,4.4-1.61h10.93c1.58,0,2.73.54,3.46,1.61.73,1.07.87,2.42.42,4.04h.61l4.43-16.51h16.94l-11.66,43.47h-16.94l1.52-5.65h-.61c-.4,1.62-1.25,2.97-2.55,4.04-1.3,1.07-2.75,1.61-4.37,1.61h-10.93ZM698.95,184.91c.89,0,1.64-.18,2.25-.55.61-.36.99-.87,1.15-1.52l3.16-11.66c.16-.69.05-1.21-.33-1.58-.39-.36-1-.55-1.85-.55s-1.63.17-2.22.52c-.59.34-.98.86-1.18,1.55l-3.16,11.66c-.16.65-.05,1.16.33,1.55.38.39,1,.58,1.85.58Z"/>
        <path class="cls-2" d="M719.29,193.29l1.76-6.56,14.51-16.39.12-.3h-9.78l2.49-9.35h31.82l-1.76,6.56-14.63,16.33-.12.36h10.32l-2.49,9.35h-32.24Z"/>
      </g>
    </g>
  </g>
</svg>