<?xml version="1.0" encoding="UTF-8"?>
<svg id="Layer_2" data-name="Layer 2" xmlns="http://www.w3.org/2000/svg" viewBox="0 0 299.22 71.82">
  <defs>
    <style>
      .cls-1 {
        fill: #a8cc7a;
      }

      .cls-2 {
        fill: #fefefe;
      }
    </style>
  </defs>
  <g id="Layer_1-2" data-name="Layer 1">
    <g>
      <g>
        <path class="cls-2" d="M1.86,45.02V0h17.29l7.04,8.49,4.97,5.97h.31V0h14.59v45.02h-16.04l-7.92-9.87-5.41-6.79h-.31v16.66H1.86Z"/>
        <path class="cls-2" d="M49.33,45.02V0h18.99v45.02h-18.99Z"/>
        <path class="cls-2" d="M77.57,45.02c-1.84,0-3.36-.69-4.56-2.08-1.2-1.38-1.79-3.1-1.79-5.16V7.23c0-2.1.6-3.83,1.79-5.19,1.19-1.36,2.71-2.04,4.56-2.04h32.32c1.84,0,3.36.68,4.56,2.04,1.19,1.36,1.79,3.09,1.79,5.19v12.45h-18.55v-6.29c0-1.17-.35-2.01-1.04-2.51-.69-.5-1.65-.75-2.86-.75s-2.1.24-2.77.72c-.67.48-1.01,1.31-1.01,2.48v18.24c0,1.17.36,2.01,1.07,2.52s1.66.75,2.83.75,2.1-.24,2.77-.72c.67-.48,1.01-1.31,1.01-2.48v-6.29h18.55v12.45c0,2.05-.6,3.77-1.79,5.16-1.2,1.38-2.71,2.08-4.56,2.08h-32.32Z"/>
        <path class="cls-2" d="M124.92,45.02c-1.84,0-3.36-.69-4.56-2.08-1.2-1.38-1.79-3.1-1.79-5.16V7.23c0-2.1.6-3.83,1.79-5.19,1.19-1.36,2.71-2.04,4.56-2.04h32.64c1.84,0,3.36.68,4.56,2.04,1.19,1.36,1.79,3.09,1.79,5.19v30.56c0,2.05-.6,3.77-1.79,5.16-1.2,1.38-2.71,2.08-4.56,2.08h-32.64ZM141.27,34.84c1.17,0,2.1-.24,2.77-.72.67-.48,1.01-1.31,1.01-2.48V13.46c0-1.17-.35-2.01-1.04-2.52s-1.65-.75-2.86-.75-2.1.24-2.77.72c-.67.48-1.01,1.31-1.01,2.48v18.17c0,1.17.36,2.01,1.07,2.52s1.66.75,2.83.75Z"/>
        <path class="cls-2" d="M166.8,45.02V0h18.8v32.07h17.17v12.95h-35.97Z"/>
        <path class="cls-2" d="M203.9,45.02L215.59,0h26.85l11.7,45.02h-20.06l-1.82-7.23h-10.82l-1.89,7.23h-15.66ZM223.7,27.54h6.35l-2.96-12.32h-.31l-3.08,12.32Z"/>
        <path class="cls-2" d="M261.05,45.02c-1.85,0-3.36-.69-4.56-2.08-1.2-1.38-1.79-3.1-1.79-5.16v-6.98h18.61v1.89c0,1.09.27,1.95.82,2.58s1.47.94,2.77.94,2.24-.31,2.7-.94c.46-.63.69-1.4.69-2.33,0-1.09-.24-1.9-.72-2.42-.48-.52-1.39-.89-2.74-1.1l-15.66-2.45c-1.93-.33-3.48-1.16-4.65-2.48-1.17-1.32-1.76-3.09-1.76-5.31V7.23c0-2.1.6-3.83,1.79-5.19,1.19-1.36,2.71-2.04,4.56-2.04h31.44c1.84,0,3.36.68,4.56,2.04,1.2,1.36,1.79,3.09,1.79,5.19v6.98h-18.55v-1.89c0-1.09-.26-1.95-.79-2.58-.52-.63-1.46-.94-2.8-.94s-2.19.28-2.67.85c-.48.57-.72,1.29-.72,2.17,0,.92.23,1.63.69,2.11.46.48,1.38.83,2.77,1.04l15.66,2.45c1.97.29,3.53,1.15,4.69,2.58,1.15,1.43,1.73,3.31,1.73,5.66v12.14c0,2.05-.6,3.77-1.79,5.16-1.19,1.38-2.71,2.08-4.56,2.08h-31.5Z"/>
      </g>
      <g>
        <path class="cls-1" d="M2.99,71.82c-.78,0-1.41-.2-1.91-.6-.5-.4-.83-.94-.98-1.63s-.12-1.47.1-2.34l3.43-12.85c.22-.83.58-1.57,1.08-2.22.5-.65,1.08-1.15,1.75-1.52.66-.37,1.36-.55,2.08-.55h18.58c.74,0,1.34.18,1.8.55.46.37.77.88.91,1.52.15.65.1,1.38-.14,2.22l-3.52,13.15H6.23c-.48,0-.82-.18-1.02-.53s-.24-.79-.11-1.33l2.55-9.47c.15-.54.42-.98.82-1.33.4-.35.83-.53,1.32-.53h15.34l-2.66,9.86h2.1l2.63-9.83c.15-.48.13-.92-.04-1.32-.18-.4-.59-.6-1.23-.6H8.45c-.63,0-1.14.2-1.54.61-.4.41-.66.84-.79,1.3l-3.43,12.85c-.13.52-.1,1.01.1,1.48.19.47.66.71,1.4.71h15.87l-.64,2.38H2.99ZM14.12,64.23h.5l1.66-6.12h-.5c-.22,0-.42.08-.61.25s-.31.39-.39.67l-1.16,4.26c-.07.28-.06.5.03.68.09.18.25.26.47.26Z"/>
        <path class="cls-1" d="M26.96,70.76l4.24-15.82h8.25l-.74,2.74h.29c.22-.79.63-1.44,1.25-1.96.62-.52,1.32-.78,2.11-.78h-1.27,6.16c.79,0,1.36.26,1.72.78.36.52.44,1.17.22,1.96h.21c.22-.79.64-1.44,1.28-1.96.64-.52,1.35-.78,2.14-.78h4.98c.79,0,1.36.26,1.72.78.36.52.44,1.17.22,1.96l-3.51,13.08h-8.25l2.86-10.7c.1-.29.07-.52-.09-.68s-.41-.24-.77-.24-.65.07-.9.22c-.25.15-.41.37-.49.66l-2.89,10.73h-8.25l2.86-10.7c.1-.29.07-.52-.09-.68s-.41-.24-.77-.24-.65.07-.9.22c-.25.15-.41.37-.49.66l-2.89,10.73h-8.25Z"/>
        <path class="cls-1" d="M60.61,70.76c-.79,0-1.36-.26-1.71-.78-.35-.52-.43-1.17-.24-1.96l2.77-10.34c.22-.79.64-1.44,1.28-1.96.64-.52,1.35-.78,2.14-.78h13.82c.79,0,1.36.26,1.72.78.36.52.44,1.17.22,1.96l-2.77,10.34c-.2.79-.62,1.44-1.27,1.96-.65.52-1.37.78-2.15.78h-13.82ZM68.56,66.82c.43,0,.8-.09,1.09-.27.29-.18.48-.42.56-.74l1.59-5.89c.1-.33.05-.59-.15-.77s-.5-.27-.91-.27c-.43,0-.79.08-1.08.25s-.48.42-.57.75l-1.59,5.89c-.08.31-.03.56.16.75.19.19.49.28.9.28Z"/>
        <path class="cls-1" d="M78.85,70.76l4.24-15.82h8.31l-.74,2.74h.29c.22-.79.63-1.44,1.25-1.96.62-.52,1.32-.78,2.11-.78h5.36c.79,0,1.36.26,1.72.78.36.52.44,1.17.22,1.96l-3.51,13.08h-8.31l2.86-10.7c.1-.33.05-.59-.13-.77-.19-.18-.48-.27-.87-.27-.43,0-.79.08-1.08.25-.29.17-.47.42-.54.75l-2.89,10.73h-8.31Z"/>
        <path class="cls-1" d="M102.48,70.76c-.79,0-1.36-.26-1.71-.78-.35-.52-.43-1.17-.24-1.96l2.77-10.34c.22-.79.64-1.44,1.28-1.96.64-.52,1.35-.78,2.14-.78h13.82c.79,0,1.36.26,1.72.78.36.52.44,1.17.22,1.96l-2.77,10.34c-.2.79-.62,1.44-1.27,1.96-.65.52-1.37.78-2.15.78h-13.82ZM110.43,66.82c.43,0,.8-.09,1.09-.27.29-.18.48-.42.56-.74l1.59-5.89c.1-.33.05-.59-.15-.77s-.5-.27-.91-.27c-.43,0-.79.08-1.08.25s-.48.42-.57.75l-1.59,5.89c-.08.31-.03.56.16.75.19.19.49.28.9.28Z"/>
        <path class="cls-1" d="M123.34,70.76c-.79,0-1.36-.26-1.71-.78-.35-.52-.43-1.17-.24-1.96l4.12-15.41,9.25-2.95-1.42,5.27h3.04l-1.21,4.54h-3.04l-1.65,6.07c-.04.2-.01.36.07.49.09.13.23.19.43.19h2.36l-1.21,4.54h-8.81Z"/>
        <path class="cls-1" d="M136.1,70.76c-.79,0-1.36-.26-1.71-.78-.35-.52-.43-1.17-.24-1.96l2.77-10.34c.22-.79.64-1.44,1.28-1.96.64-.52,1.35-.78,2.14-.78h13.82c.79,0,1.36.26,1.72.78.36.52.44,1.17.22,1.96l-2.77,10.34c-.2.79-.62,1.44-1.27,1.96-.65.52-1.37.78-2.15.78h-13.82ZM144.05,66.82c.43,0,.8-.09,1.09-.27.29-.18.48-.42.56-.74l1.59-5.89c.1-.33.05-.59-.15-.77s-.5-.27-.91-.27c-.43,0-.79.08-1.08.25s-.48.42-.57.75l-1.59,5.89c-.08.31-.03.56.16.75.19.19.49.28.9.28Z"/>
        <path class="cls-1" d="M154.34,70.76l4.24-15.82h8.31l-.74,2.74h.29c.22-.79.63-1.44,1.25-1.96.62-.52,1.32-.78,2.11-.78h5.36c.79,0,1.36.26,1.72.78.36.52.44,1.17.22,1.96l-3.51,13.08h-8.31l2.86-10.7c.1-.33.05-.59-.13-.77-.19-.18-.48-.27-.87-.27-.43,0-.79.08-1.08.25-.29.17-.47.42-.54.75l-2.89,10.73h-8.31Z"/>
        <path class="cls-1" d="M177.97,70.76c-.79,0-1.36-.26-1.71-.78-.35-.52-.43-1.17-.24-1.96l2.77-10.34c.22-.79.64-1.44,1.28-1.96.64-.52,1.35-.78,2.14-.78h13.82c.79,0,1.36.26,1.72.78.36.52.44,1.17.22,1.96l-1.74,6.48h-10.93l-.56,2.15c-.1.37-.05.64.13.81.19.17.5.25.93.25s.77-.08,1.06-.25c.29-.17.49-.44.59-.81l.29-1.12h8.22l-.77,2.83c-.2.79-.62,1.44-1.27,1.96-.65.52-1.37.78-2.15.78h-13.82ZM186.16,60.98h2.71l.38-1.47c.12-.43.08-.74-.12-.91-.2-.18-.51-.26-.94-.26s-.76.09-1.05.26c-.29.18-.49.48-.6.91l-.38,1.47Z"/>
        <path class="cls-1" d="M196.21,70.76l5.66-21.1h8.22l-2.15,8.01h.29c.22-.79.64-1.44,1.27-1.96.63-.52,1.33-.78,2.09-.78h5.3c.79,0,1.36.26,1.72.78.36.52.44,1.17.22,1.96l-2.77,10.34c-.2.79-.62,1.44-1.27,1.96-.65.52-1.37.78-2.15.78h-5.3c-.79,0-1.35-.26-1.68-.78-.33-.52-.4-1.17-.21-1.96h-.29l-.74,2.74h-8.22ZM206.91,66.7c.41,0,.76-.09,1.05-.28.29-.19.47-.44.54-.75l1.53-5.66c.1-.33.04-.58-.16-.75-.21-.17-.53-.25-.96-.25s-.76.09-1.05.26c-.29.18-.47.43-.55.77l-1.53,5.66c-.08.31-.02.56.18.74.2.18.51.27.94.27Z"/>
        <path class="cls-1" d="M219.58,70.76c-.79,0-1.36-.26-1.71-.78-.35-.52-.43-1.17-.24-1.96l.91-3.42c.22-.83.63-1.5,1.24-2.02.61-.52,1.3-.81,2.06-.87l7.19-.56c.47-.04.84-.15,1.11-.34.27-.19.47-.52.6-.99l.03-.09c.14-.49.12-.85-.06-1.08s-.48-.34-.91-.34-.77.11-1.08.34c-.3.23-.51.54-.6.93l-.29,1.06h-8.22l.8-2.98c.22-.79.64-1.44,1.28-1.96.64-.52,1.35-.78,2.14-.78h13.85c.79,0,1.36.26,1.72.78.36.52.44,1.17.22,1.96l-3.51,13.08h-8.22l.68-2.56h-.29c-.2.73-.59,1.34-1.18,1.83-.59.49-1.26.74-2,.74h-5.51ZM227.53,67.02c.41,0,.77-.09,1.06-.28.29-.19.48-.44.56-.75l.5-1.8-1.27.15c-.53.06-.95.2-1.27.41-.31.22-.53.54-.65.97-.08.28-.09.51-.03.71.06.2.18.34.37.44.19.1.43.15.72.15Z"/>
        <path class="cls-1" d="M237.93,70.76l4.24-15.82h8.31l-.74,2.74h.29c.22-.79.63-1.44,1.25-1.96.62-.52,1.32-.78,2.11-.78h5.36c.79,0,1.36.26,1.72.78.36.52.44,1.17.22,1.96l-3.51,13.08h-8.31l2.86-10.7c.1-.33.05-.59-.13-.77-.19-.18-.48-.27-.87-.27-.43,0-.79.08-1.08.25-.29.17-.47.42-.54.75l-2.89,10.73h-8.31Z"/>
        <path class="cls-1" d="M261.56,70.76c-.79,0-1.36-.26-1.71-.78-.35-.52-.43-1.17-.24-1.96l2.77-10.34c.22-.79.64-1.44,1.28-1.96.64-.52,1.35-.78,2.14-.78h5.3c.77,0,1.33.26,1.68.78.35.52.42,1.17.21,1.96h.29l2.15-8.01h8.22l-5.66,21.1h-8.22l.74-2.74h-.29c-.2.79-.61,1.44-1.24,1.96-.63.52-1.34.78-2.12.78h-5.3ZM269.49,66.7c.43,0,.79-.09,1.09-.27.29-.18.48-.42.56-.74l1.53-5.66c.08-.33.02-.59-.16-.77s-.49-.26-.9-.26-.79.08-1.08.25c-.29.17-.48.42-.58.75l-1.53,5.66c-.08.31-.02.56.16.75.19.19.49.28.9.28Z"/>
        <path class="cls-1" d="M279.36,70.76l.85-3.18,7.04-7.96.06-.15h-4.74l1.21-4.54h15.44l-.85,3.18-7.1,7.93-.06.18h5.01l-1.21,4.54h-15.65Z"/>
      </g>
    </g>
  </g>
</svg>